<svg width="34" height="34" viewBox="0 0 34 34" fill="none" xmlns="http://www.w3.org/2000/svg">
<g clip-path="url(#clip0_1003_683)" filter="url(#filter0_d_1003_683)">
<path d="M17 3C10.372 3 5 8.373 5 15C5 21.627 10.372 27 17 27C23.628 27 29 21.627 29 15C29 8.373 23.628 3 17 3ZM26.885 14.441C24.31 14.019 21.942 13.996 19.782 14.368C19.538 13.805 19.285 13.243 19.015 12.688C21.325 11.688 23.18 10.33 24.563 8.606C25.913 10.2 26.76 12.225 26.885 14.441ZM23.043 7.159C21.838 8.713 20.175 9.942 18.057 10.839C17.041 8.978 15.879 7.163 14.569 5.401C15.348 5.204 16.16 5.087 17 5.087C19.275 5.087 21.368 5.866 23.043 7.159ZM12.527 6.166C13.858 7.908 15.038 9.704 16.064 11.547C13.634 12.262 10.733 12.629 7.38 12.652C8.072 9.817 9.981 7.459 12.527 6.166V6.166ZM7.087 15L7.1 14.744C10.949 14.739 14.269 14.296 17.05 13.422C17.283 13.897 17.506 14.374 17.72 14.854C14.34 15.911 11.555 18.076 9.383 21.334C7.951 19.615 7.087 17.407 7.087 15V15ZM10.916 22.81C12.885 19.722 15.398 17.712 18.514 16.783C19.442 19.203 20.123 21.693 20.557 24.243C17.208 25.534 13.604 24.909 10.916 22.81ZM22.502 23.24C22.064 20.887 21.422 18.587 20.582 16.343C22.458 16.078 24.522 16.147 26.781 16.539C26.344 19.325 24.753 21.731 22.502 23.24Z" fill="#CCCCCC"/>
</g>
<defs>
<filter id="filter0_d_1003_683" x="0" y="0" width="34" height="34" filterUnits="userSpaceOnUse" color-interpolation-filters="sRGB">
<feFlood flood-opacity="0" result="BackgroundImageFix"/>
<feColorMatrix in="SourceAlpha" type="matrix" values="0 0 0 0 0 0 0 0 0 0 0 0 0 0 0 0 0 0 127 0" result="hardAlpha"/>
<feOffset dy="2"/>
<feGaussianBlur stdDeviation="2.5"/>
<feComposite in2="hardAlpha" operator="out"/>
<feColorMatrix type="matrix" values="0 0 0 0 0 0 0 0 0 0 0 0 0 0 0 0 0 0 0.2 0"/>
<feBlend mode="normal" in2="BackgroundImageFix" result="effect1_dropShadow_1003_683"/>
<feBlend mode="normal" in="SourceGraphic" in2="effect1_dropShadow_1003_683" result="shape"/>
</filter>
<clipPath id="clip0_1003_683">
<rect width="24" height="24" fill="white" transform="translate(5 3)"/>
</clipPath>
</defs>
</svg>
