<svg width="34" height="30" viewBox="0 0 34 30" fill="none" xmlns="http://www.w3.org/2000/svg">
<g clip-path="url(#clip0_1003_685)" filter="url(#filter0_d_1003_685)">
<path fill-rule="evenodd" clip-rule="evenodd" d="M7.846 6.887C7.876 6.592 7.763 6.301 7.543 6.103L5.303 3.403V3H12.261L17.639 14.795L22.367 3H29V3.403L27.084 5.24C26.919 5.366 26.837 5.573 26.871 5.778V19.276C26.837 19.48 26.919 19.687 27.084 19.813L28.955 21.65V22.053H19.543V21.65L21.482 19.768C21.672 19.578 21.672 19.522 21.672 19.231V8.321L16.283 22.009H15.555L9.28 8.321V17.495C9.228 17.88 9.356 18.269 9.627 18.547L12.148 21.605V22.009H5V21.605L7.521 18.547C7.791 18.268 7.911 17.877 7.846 17.495V6.887V6.887Z" fill="#CCCCCC"/>
</g>
<defs>
<filter id="filter0_d_1003_685" x="0" y="-3" width="34" height="34" filterUnits="userSpaceOnUse" color-interpolation-filters="sRGB">
<feFlood flood-opacity="0" result="BackgroundImageFix"/>
<feColorMatrix in="SourceAlpha" type="matrix" values="0 0 0 0 0 0 0 0 0 0 0 0 0 0 0 0 0 0 127 0" result="hardAlpha"/>
<feOffset dy="2"/>
<feGaussianBlur stdDeviation="2.5"/>
<feComposite in2="hardAlpha" operator="out"/>
<feColorMatrix type="matrix" values="0 0 0 0 0 0 0 0 0 0 0 0 0 0 0 0 0 0 0.2 0"/>
<feBlend mode="normal" in2="BackgroundImageFix" result="effect1_dropShadow_1003_685"/>
<feBlend mode="normal" in="SourceGraphic" in2="effect1_dropShadow_1003_685" result="shape"/>
</filter>
<clipPath id="clip0_1003_685">
<rect width="24" height="24" fill="white" transform="translate(5)"/>
</clipPath>
</defs>
</svg>
